<svg xmlns="http://www.w3.org/2000/svg" fill="none" viewBox="50.44 3.78 1883.08 827.69">
<path d="M1183.46 473.226C1210.4 467.185 1237.14 484.131 1243.18 511.076C1249.23 538.022 1232.28 564.762 1205.33 570.804C1178.39 576.845 1151.65 559.899 1145.61 532.953C1139.57 506.008 1156.51 479.267 1183.46 473.226Z" fill="#515151" fill-opacity="0.36"/>
<path d="M1410.85 418.695C1451.27 409.633 1491.38 435.053 1500.44 475.471C1509.5 515.889 1484.09 556 1443.67 565.062C1403.25 574.124 1363.14 548.704 1354.08 508.286C1345.01 467.868 1370.43 427.757 1410.85 418.695Z" fill="#353535" fill-opacity="0.58"/>
<path d="M1265.06 369.756C1278.54 366.735 1291.91 375.208 1294.93 388.681C1297.95 402.154 1289.48 415.524 1276 418.545C1262.53 421.565 1249.16 413.092 1246.14 399.62C1243.12 386.147 1251.59 372.777 1265.06 369.756Z" fill="#6B6B6B" fill-opacity="0.36"/>
<path d="M1475.68 272.751C1497.23 267.918 1518.63 281.475 1523.46 303.031C1528.29 324.587 1514.73 345.98 1493.18 350.813C1471.62 355.646 1450.23 342.089 1445.4 320.533C1440.56 298.977 1454.12 277.584 1475.68 272.751Z" fill="#545454" fill-opacity="0.34"/>
<path d="M1933.52 3.78175C1734.3 29.8397 1582.21 202.046 1585.96 407.667C1589.62 608.296 1740.38 771.727 1933.52 796.986L1933.52 3.78175Z" fill="#767676" fill-opacity="0.7"/>
<path d="M181.211 473.09C168.908 479.357 153.855 474.464 147.588 462.161C141.321 449.858 146.215 434.804 158.518 428.537C170.821 422.27 185.875 427.164 192.141 439.467C198.408 451.77 193.515 466.824 181.211 473.09Z" fill="#A9A9A9" fill-opacity="0.36"/>
<path d="M555.305 819.899C543.002 826.166 527.948 821.272 521.681 808.969C515.414 796.666 520.308 781.613 532.611 775.346C544.914 769.079 559.968 773.973 566.234 786.276C572.501 798.579 567.608 813.632 555.305 819.899Z" fill="#8C8C8C" fill-opacity="0.36"/>
<path d="M159.501 823.288C122.592 842.088 77.4308 827.408 58.6307 790.499C39.8307 753.589 54.511 708.428 91.4201 689.628C128.329 670.828 173.491 685.508 192.291 722.417C211.091 759.327 196.41 804.488 159.501 823.288Z" fill="#555555" fill-opacity="0.4"/>
<path d="M275.882 632.596C251.276 645.129 221.169 635.342 208.635 610.736C196.102 586.13 205.889 556.022 230.495 543.489C255.101 530.956 285.209 540.743 297.742 565.349C310.275 589.955 300.488 620.062 275.882 632.596Z" fill="#7D7D7D" fill-opacity="0.36"/>
<path d="M356.287 790.439C336.602 800.466 312.516 792.636 302.489 772.951C292.463 753.267 300.292 729.181 319.977 719.154C339.662 709.127 363.748 716.957 373.775 736.641C383.801 756.326 375.972 780.412 356.287 790.439Z" fill="#A8A8A8" fill-opacity="0.36"/>
<path d="M385.043 476.289C365.358 486.316 341.272 478.486 331.245 458.802C321.218 439.117 329.048 415.031 348.733 405.004C368.418 394.977 392.504 402.807 402.53 422.492C412.557 442.177 404.727 466.263 385.043 476.289Z" fill="#444444" fill-opacity="0.34"/>
<path d="M504.127 721.659C479.521 734.192 449.413 724.405 436.88 699.799C424.346 675.193 434.133 645.086 458.739 632.552C483.346 620.019 513.453 629.806 525.986 654.412C538.52 679.018 528.733 709.126 504.127 721.659Z" fill="#393939" fill-opacity="0.36"/>
</svg>