<svg xmlns="http://www.w3.org/2000/svg" fill="none" viewBox="198.43 61.1 1920.26 666.06">
<path d="M545.741 557.655C529.675 586.637 493.156 597.108 464.174 581.043C435.192 564.977 424.721 528.459 440.787 499.477C456.853 470.495 493.371 460.024 522.353 476.089C551.335 492.155 561.806 528.673 545.741 557.655Z" fill="#2A2A2A" fill-opacity="0.4"/>
<path d="M313.402 545.331C366.876 501.668 374.83 422.923 331.167 369.449C298.244 329.128 245.374 314.689 198.433 328.743L198.433 569.126C236.819 580.6 280.032 572.579 313.402 545.331Z" fill="#8E8E8E" fill-opacity="0.76"/>
<path d="M483.232 71.7255C510.501 52.8992 547.87 59.744 566.696 87.0137C585.522 114.283 578.677 151.652 551.408 170.478C524.138 189.304 486.77 182.459 467.943 155.19C449.117 127.92 455.962 90.5518 483.232 71.7255Z" fill="#A9A9A9" fill-opacity="0.29"/>
<path d="M428.941 258.275C442.484 255.587 455.642 264.387 458.329 277.93C461.017 291.473 452.217 304.631 438.674 307.319C425.131 310.006 411.974 301.206 409.286 287.663C406.598 274.12 415.398 260.963 428.941 258.275Z" fill="#232323" fill-opacity="0.36"/>
<path d="M563.614 296.933C583.929 292.901 603.665 306.101 607.697 326.416C611.728 346.73 598.528 366.467 578.214 370.498C557.899 374.53 538.163 361.33 534.131 341.015C530.1 320.701 543.3 300.964 563.614 296.933Z" fill="#656565" fill-opacity="0.36"/>
<path d="M256.542 145.487C279.267 129.799 310.407 135.503 326.095 158.227C341.784 180.952 336.08 212.092 313.355 227.781C290.63 243.469 259.49 237.766 243.802 215.041C228.113 192.316 233.817 161.176 256.542 145.487Z" fill="#4A4A4A" fill-opacity="0.27"/>
<path d="M1808.72 630.653C1792.65 659.635 1756.14 670.106 1727.15 654.04C1698.17 637.975 1687.7 601.456 1703.77 572.474C1719.83 543.492 1756.35 533.021 1785.33 549.087C1814.31 565.152 1824.79 601.671 1808.72 630.653Z" fill="#2A2A2A" fill-opacity="0.4"/>
<path d="M1849.39 365.711C1839.35 383.825 1816.53 390.37 1798.41 380.329C1780.3 370.288 1773.76 347.464 1783.8 329.35C1793.84 311.236 1816.66 304.692 1834.78 314.733C1852.89 324.774 1859.43 347.598 1849.39 365.711Z" fill="#2A2A2A" fill-opacity="0.4"/>
<path d="M1545.48 357.734C1540.12 367.394 1527.95 370.885 1518.29 365.53C1508.63 360.174 1505.14 348.002 1510.49 338.341C1515.85 328.68 1528.02 325.19 1537.68 330.545C1547.34 335.9 1550.83 348.073 1545.48 357.734Z" fill="#2A2A2A" fill-opacity="0.4"/>
<path d="M2034 344.198C2017.93 373.18 1981.41 383.651 1952.43 367.585C1923.45 351.52 1912.98 315.001 1929.04 286.019C1945.11 257.037 1981.63 246.566 2010.61 262.632C2039.59 278.697 2050.06 315.216 2034 344.198Z" fill="#2A2A2A" fill-opacity="0.4"/>
<path d="M1929.89 681.211C1973.56 734.685 2052.3 742.638 2105.78 698.975C2110.43 695.177 2114.74 691.112 2118.69 686.822L2118.69 517.5C2074.24 469.114 1999.21 463.237 1947.66 505.329C1894.18 548.992 1886.23 627.737 1929.89 681.211Z" fill="#8E8E8E" fill-opacity="0.76"/>
<path d="M1523.23 541.329C1509.01 552.281 1488.6 549.632 1477.65 535.412C1466.69 521.192 1469.34 500.785 1483.56 489.832C1497.78 478.88 1518.19 481.529 1529.14 495.749C1540.1 509.969 1537.45 530.376 1523.23 541.329Z" fill="#232323" fill-opacity="0.36"/>
<path d="M1677.27 462.151C1660.86 474.788 1637.32 471.732 1624.68 455.324C1612.04 438.916 1615.1 415.37 1631.51 402.732C1647.92 390.094 1671.46 393.151 1684.1 409.559C1696.74 425.967 1693.68 449.513 1677.27 462.151Z" fill="#656565" fill-opacity="0.36"/>
<path d="M1410.36 414.663C1406.34 421.908 1397.21 424.526 1389.97 420.51C1382.72 416.493 1380.1 407.364 1384.12 400.118C1388.14 392.873 1397.27 390.255 1404.51 394.271C1411.76 398.288 1414.38 407.417 1410.36 414.663Z" fill="#4A4A4A" fill-opacity="0.27"/>
</svg>