<svg xmlns="http://www.w3.org/2000/svg" fill="none" viewBox="142.17 418.69 1920.98 1047.4">
<path d="M205.657 1164.13C344.358 1164.13 456.798 1051.69 456.798 912.987C456.798 774.285 344.358 661.846 205.657 661.846C183.724 661.846 162.447 664.657 142.169 669.94L142.169 1156.03C162.447 1161.32 183.724 1164.13 205.657 1164.13Z" fill="#767676" fill-opacity="0.4"/>
<path d="M873.909 1059.63C847.267 1052.37 831.558 1024.88 838.821 998.239C846.085 971.597 873.57 955.888 900.212 963.151C926.854 970.415 942.563 997.901 935.3 1024.54C928.036 1051.18 900.55 1066.89 873.909 1059.63Z" fill="#515151" fill-opacity="0.36"/>
<path d="M712.619 965.205C672.656 954.31 649.093 913.081 659.988 873.118C670.883 833.156 712.112 809.592 752.074 820.487C792.037 831.382 815.601 872.611 804.706 912.574C793.81 952.536 752.582 976.1 712.619 965.205Z" fill="#353535" fill-opacity="0.58"/>
<path d="M941.789 866.815C928.468 863.183 920.613 849.44 924.245 836.119C927.877 822.798 941.62 814.944 954.941 818.575C968.262 822.207 976.116 835.95 972.484 849.271C968.853 862.592 955.11 870.447 941.789 866.815Z" fill="#6B6B6B" fill-opacity="0.36"/>
<path d="M587.06 1063.88C565.747 1058.07 553.179 1036.08 558.99 1014.77C564.801 993.454 586.789 980.886 608.103 986.697C629.416 992.508 641.984 1014.5 636.173 1035.81C630.362 1057.12 608.374 1069.69 587.06 1063.88Z" fill="#545454" fill-opacity="0.34"/>
<path d="M1418.7 1068.06C1418.68 1054.25 1429.86 1043.04 1443.67 1043.03C1457.48 1043.01 1468.68 1054.19 1468.7 1068C1468.71 1081.81 1457.53 1093.01 1443.73 1093.03C1429.92 1093.04 1418.71 1081.86 1418.7 1068.06Z" fill="#8C8C8C" fill-opacity="0.36"/>
<path d="M2022.54 643.125C1981.12 643.173 1947.58 676.789 1947.63 718.211C1947.68 759.632 1981.29 793.173 2022.71 793.125C2037.61 793.108 2051.48 788.751 2063.15 781.251L2063.15 655C2051.44 647.47 2037.5 643.108 2022.54 643.125Z" fill="#383838" fill-opacity="0.5"/>
<path d="M1881.73 566.113C1881.69 538.499 1904.05 516.088 1931.67 516.056C1959.28 516.025 1981.69 538.385 1981.73 565.999C1981.76 593.613 1959.4 616.025 1931.78 616.056C1904.17 616.087 1881.76 593.727 1881.73 566.113Z" fill="#7D7D7D" fill-opacity="0.36"/>
<path d="M1887.8 908.537C1887.78 886.446 1905.66 868.517 1927.76 868.492C1949.85 868.467 1967.78 886.355 1967.8 908.446C1967.83 930.538 1949.94 948.467 1927.85 948.492C1905.75 948.517 1887.83 930.629 1887.8 908.537Z" fill="#6A6A6A" fill-opacity="0.36"/>
<path d="M1798.71 1217.09C1798.69 1195 1816.58 1177.07 1838.67 1177.05C1860.76 1177.02 1878.69 1194.91 1878.71 1217C1878.74 1239.09 1860.85 1257.02 1838.76 1257.05C1816.67 1257.07 1798.74 1239.18 1798.71 1217.09Z" fill="#6A6A6A" fill-opacity="0.36"/>
<path d="M1621.71 1123.09C1621.69 1101 1639.58 1083.07 1661.67 1083.05C1683.76 1083.02 1701.69 1100.91 1701.71 1123C1701.74 1145.09 1683.85 1163.02 1661.76 1163.04C1639.67 1163.07 1621.74 1145.18 1621.71 1123.09Z" fill="#6A6A6A" fill-opacity="0.36"/>
<path d="M1776.76 1083.04C1776.73 1060.95 1794.62 1043.02 1816.71 1043C1838.81 1042.97 1856.73 1060.86 1856.76 1082.95C1856.79 1105.04 1838.9 1122.97 1816.81 1123C1794.71 1123.02 1776.79 1105.14 1776.76 1083.04Z" fill="#444444" fill-opacity="0.34"/>
<path d="M1931.73 1135.11C1931.69 1107.5 1954.05 1085.09 1981.67 1085.06C2009.28 1085.03 2031.69 1107.39 2031.73 1135C2031.76 1162.61 2009.4 1185.03 1981.78 1185.06C1954.17 1185.09 1931.76 1162.73 1931.73 1135.11Z" fill="#393939" fill-opacity="0.36"/>
<path d="M1508.2 1135.06C1508.18 1121.25 1519.36 1110.04 1533.17 1110.03C1546.98 1110.01 1558.18 1121.19 1558.2 1135C1558.21 1148.81 1547.03 1160.01 1533.23 1160.03C1519.42 1160.04 1508.21 1148.86 1508.2 1135.06Z" fill="#AFAFAF"/>
<path d="M1990.79 467.814C1977.47 464.182 1969.61 450.44 1973.24 437.119C1976.88 423.798 1990.62 415.943 2003.94 419.575C2017.26 423.207 2025.12 436.949 2021.48 450.27C2017.85 463.591 2004.11 471.446 1990.79 467.814Z" fill="#6B6B6B" fill-opacity="0.36"/>
<path d="M1904.75 1391.17C1904.71 1349.75 1938.25 1316.13 1979.67 1316.09C2021.09 1316.04 2054.71 1349.58 2054.75 1391C2054.8 1432.42 2021.26 1466.04 1979.84 1466.09C1938.42 1466.13 1904.8 1432.59 1904.75 1391.17Z" fill="#383838" fill-opacity="0.4"/>
</svg>