<svg xmlns="http://www.w3.org/2000/svg" fill="none" viewBox="195.67 48.8 1963.61 897.68">
<path d="M462.669 386.358C427.777 233.443 326.229 113.039 195.669 48.8024L195.669 946.482C399.242 846.714 515.289 616.967 462.669 386.358Z" fill="#919191" fill-opacity="0.52"/>
<path d="M512.22 650.943C523.571 625.769 553.18 614.564 578.353 625.915C603.527 637.266 614.732 666.875 603.381 692.048C592.03 717.222 562.421 728.427 537.248 717.076C512.074 705.725 500.869 676.116 512.22 650.943Z" fill="#515151" fill-opacity="0.36"/>
<path d="M605.175 436.37C622.202 398.61 666.615 381.802 704.375 398.828C742.135 415.855 758.943 460.268 741.917 498.028C724.89 535.788 680.477 552.596 642.717 535.57C604.957 518.543 588.149 474.13 605.175 436.37Z" fill="#353535" fill-opacity="0.48"/>
<path d="M1690.89 632.455C1693.78 618.953 1707.07 610.348 1720.57 613.236C1734.07 616.123 1742.68 629.409 1739.79 642.911C1736.9 656.412 1723.62 665.017 1710.11 662.13C1696.61 659.243 1688.01 645.957 1690.89 632.455Z" fill="#A9A9A9" fill-opacity="0.36"/>
<path d="M1710.89 484.455C1713.78 470.953 1727.07 462.348 1740.57 465.236C1754.07 468.123 1762.68 481.409 1759.79 494.911C1756.9 508.412 1743.62 517.017 1730.11 514.13C1716.61 511.243 1708.01 497.957 1710.89 484.455Z" fill="#8C8C8C" fill-opacity="0.36"/>
<path d="M1952.85 263.661C1961.52 223.155 2001.37 197.341 2041.88 206.002C2082.38 214.664 2108.2 254.522 2099.54 295.027C2090.88 335.533 2051.02 361.348 2010.51 352.686C1970.01 344.024 1944.19 304.166 1952.85 263.661Z" fill="#555555" fill-opacity="0.4"/>
<path d="M2027.58 474.194C2033.35 447.19 2059.92 429.981 2086.93 435.755C2113.93 441.529 2131.14 468.101 2125.37 495.105C2119.59 522.109 2093.02 539.319 2066.02 533.544C2039.01 527.77 2021.8 501.198 2027.58 474.194Z" fill="#7D7D7D" fill-opacity="0.36"/>
<path d="M1854.35 437.157C1858.97 415.554 1880.23 401.786 1901.83 406.405C1923.43 411.025 1937.2 432.282 1932.58 453.885C1927.96 475.488 1906.71 489.256 1885.1 484.637C1863.5 480.017 1849.73 458.76 1854.35 437.157Z" fill="#A8A8A8" fill-opacity="0.36"/>
<path d="M2080.15 657.452C2084.77 635.849 2106.03 622.081 2127.63 626.701C2149.24 631.32 2163 652.578 2158.39 674.181C2153.77 695.784 2132.51 709.552 2110.91 704.932C2089.3 700.313 2075.53 679.055 2080.15 657.452Z" fill="#444444" fill-opacity="0.34"/>
<path d="M1814.59 595.291C1820.37 568.288 1846.94 551.078 1873.94 556.852C1900.95 562.627 1918.16 589.199 1912.38 616.202C1906.61 643.206 1880.03 660.416 1853.03 654.641C1826.03 648.867 1808.82 622.295 1814.59 595.291Z" fill="#393939" fill-opacity="0.36"/>
</svg>