<svg xmlns="http://www.w3.org/2000/svg" fill="none" viewBox="347.17 812.8 1921.5 855.67">
<path d="M1957.88 1058.8C1960.61 1091.83 1936.06 1120.82 1903.04 1123.55C1870.01 1126.29 1841.02 1101.73 1838.29 1068.71C1835.55 1035.68 1860.11 1006.69 1893.13 1003.96C1926.16 1001.23 1955.14 1025.78 1957.88 1058.8Z" fill="#626262" fill-opacity="0.29"/>
<path d="M1991.71 1293.69C1987.29 1306.77 1973.1 1313.8 1960.02 1309.38C1946.94 1304.96 1939.92 1290.77 1944.34 1277.69C1948.76 1264.61 1962.94 1257.59 1976.02 1262.01C1989.1 1266.42 1996.13 1280.61 1991.71 1293.69Z" fill="#232323" fill-opacity="0.36"/>
<path d="M1801.72 1377.53C1795.1 1397.15 1773.82 1407.68 1754.2 1401.06C1734.58 1394.43 1724.04 1373.15 1730.67 1353.53C1737.29 1333.91 1758.57 1323.37 1778.2 1330C1797.82 1336.63 1808.35 1357.9 1801.72 1377.53Z" fill="#656565" fill-opacity="0.36"/>
<path d="M2117.12 1439.84C2119.4 1467.36 2098.94 1491.51 2071.42 1493.79C2043.9 1496.07 2019.74 1475.61 2017.46 1448.09C2015.19 1420.57 2035.65 1396.41 2063.17 1394.13C2090.69 1391.85 2114.84 1412.32 2117.12 1439.84Z" fill="#A4A4A4" fill-opacity="0.27"/>
<path d="M2055.17 1168.96C2080.65 1280.65 2165.4 1363.43 2268.67 1391.7L2268.67 812.799C2114.31 854.803 2019.25 1011.55 2055.17 1168.96Z" fill="#5C5C5C" fill-opacity="0.76"/>
<path d="M668.052 1403C695.322 1384.17 732.69 1391.02 751.517 1418.29C770.343 1445.56 763.498 1482.93 736.229 1501.75C708.959 1520.58 671.591 1513.73 652.764 1486.46C633.938 1459.19 640.783 1421.83 668.052 1403Z" fill="#2A2A2A" fill-opacity="0.4"/>
<path d="M874.529 1264.3C891.572 1252.54 914.928 1256.82 926.694 1273.86C938.46 1290.9 934.182 1314.26 917.139 1326.03C900.095 1337.79 876.74 1333.51 864.974 1316.47C853.207 1299.43 857.485 1276.07 874.529 1264.3Z" fill="#2A2A2A" fill-opacity="0.4"/>
<path d="M964.127 1416.36C973.217 1410.09 985.673 1412.37 991.949 1421.46C998.224 1430.55 995.943 1443 986.853 1449.28C977.763 1455.56 965.307 1453.27 959.031 1444.18C952.756 1435.09 955.038 1422.64 964.127 1416.36Z" fill="#2A2A2A" fill-opacity="0.4"/>
<path d="M407.909 1657.84C435.179 1639.01 442.023 1601.65 423.197 1574.38C406.093 1549.6 373.682 1541.68 347.445 1554.56L347.445 1662.37C366.291 1671.57 389.421 1670.6 407.909 1657.84Z" fill="#2A2A2A" fill-opacity="0.4"/>
<path d="M587.52 1328.24C569.091 1247.47 488.677 1196.94 407.91 1215.37C384.914 1220.62 364.369 1230.89 347.169 1244.76L347.169 1478.42C381.683 1506.19 428.107 1518.47 474.648 1507.85C555.415 1489.42 605.95 1409.01 587.52 1328.24Z" fill="#5C5C5C" fill-opacity="0.4"/>
<path d="M577.941 1150.27C591.484 1147.58 604.641 1156.38 607.329 1169.92C610.017 1183.47 601.217 1196.62 587.674 1199.31C574.131 1202 560.973 1193.2 558.286 1179.66C555.598 1166.11 564.398 1152.96 577.941 1150.27Z" fill="#232323" fill-opacity="0.36"/>
<path d="M720.451 1219.3C740.766 1215.27 760.502 1228.47 764.534 1248.78C768.565 1269.1 755.365 1288.83 735.051 1292.87C714.736 1296.9 695 1283.7 690.968 1263.38C686.937 1243.07 700.137 1223.33 720.451 1219.3Z" fill="#656565" fill-opacity="0.36"/>
<path d="M405.542 1037.48C428.266 1021.79 459.407 1027.5 475.095 1050.22C490.784 1072.95 485.08 1104.09 462.355 1119.78C439.63 1135.46 408.49 1129.76 392.802 1107.03C377.113 1084.31 382.817 1053.17 405.542 1037.48Z" fill="#4A4A4A" fill-opacity="0.27"/>
</svg>