<svg xmlns="http://www.w3.org/2000/svg" fill="none" viewBox="202.17 19.44 1921.07 1438.81">
<path d="M2105.02 430.388C2036.9 419.188 1990.72 354.805 2001.9 286.583C2011.84 225.851 2063.88 182.55 2123.24 181.675L2123.24 432.041C2117.22 431.936 2111.14 431.393 2105.02 430.388Z" fill="#8E8E8E" fill-opacity="0.76"/>
<path d="M1877.17 280.111C1849.92 275.631 1824.21 294.092 1819.75 321.343C1815.29 348.594 1833.76 374.317 1861.01 378.797C1888.26 383.276 1913.96 364.816 1918.42 337.564C1922.89 310.313 1904.41 284.59 1877.17 280.111Z" fill="#8E8E8E" fill-opacity="0.76"/>
<path d="M2020.19 20.1113C1992.94 15.6316 1967.23 34.1221 1962.76 61.4108C1958.29 88.6996 1976.76 114.453 2004.01 118.933C2031.26 123.412 2056.97 104.922 2061.44 77.6333C2065.91 50.3445 2047.44 24.591 2020.19 20.1113Z" fill="#8E8E8E" fill-opacity="0.76"/>
<path d="M1825.43 635.055C1811.81 632.815 1798.95 642.06 1796.72 655.704C1794.48 669.349 1803.72 682.226 1817.34 684.465C1830.97 686.705 1843.82 677.46 1846.06 663.816C1848.29 650.171 1839.06 637.295 1825.43 635.055Z" fill="#8E8E8E" fill-opacity="0.76"/>
<path d="M1980.95 439.166C1940.08 432.446 1901.51 460.182 1894.81 501.115C1888.1 542.048 1915.81 580.679 1956.68 587.398C1997.56 594.118 2036.13 566.382 2042.83 525.449C2049.53 484.516 2021.83 445.886 1980.95 439.166Z" fill="#8E8E8E" fill-opacity="0.76"/>
<path d="M487.527 138.725C514.797 119.898 552.165 126.743 570.991 154.013C589.817 181.282 582.973 218.651 555.703 237.477C528.433 256.303 491.065 249.458 472.239 222.189C453.413 194.919 460.257 157.551 487.527 138.725Z" fill="#A9A9A9" fill-opacity="0.29"/>
<path d="M433.236 325.274C446.779 322.586 459.937 331.386 462.625 344.929C465.312 358.472 456.512 371.63 442.969 374.318C429.426 377.005 416.269 368.205 413.581 354.662C410.893 341.119 419.693 327.962 433.236 325.274Z" fill="#232323" fill-opacity="0.36"/>
<path d="M567.909 363.932C588.224 359.9 607.96 373.1 611.992 393.415C616.023 413.729 602.824 433.466 582.509 437.497C562.195 441.529 542.458 428.329 538.427 408.014C534.395 387.7 547.595 367.963 567.909 363.932Z" fill="#656565" fill-opacity="0.36"/>
<path d="M260.837 212.487C283.562 196.798 314.702 202.502 330.391 225.227C346.079 247.952 340.375 279.092 317.651 294.78C294.926 310.469 263.786 304.765 248.097 282.04C232.408 259.316 238.112 228.175 260.837 212.487Z" fill="#4A4A4A" fill-opacity="0.27"/>
<path d="M794.375 584.207C768.101 592.707 739.912 578.299 731.412 552.025C722.912 525.752 737.32 497.562 763.594 489.062C789.867 480.562 818.057 494.971 826.556 521.244C835.056 547.518 820.648 575.707 794.375 584.207Z" fill="#515151" fill-opacity="0.36"/>
<path d="M572.977 659.472C533.566 672.222 491.282 650.61 478.532 611.199C465.782 571.789 487.395 529.505 526.805 516.755C566.215 504.005 608.5 525.618 621.249 565.028C633.999 604.438 612.387 646.722 572.977 659.472Z" fill="#353535" fill-opacity="0.58"/>
<path d="M722.656 694.761C709.519 699.011 695.425 691.807 691.175 678.67C686.925 665.533 694.129 651.438 707.266 647.188C720.402 642.938 734.497 650.143 738.747 663.279C742.997 676.416 735.793 690.511 722.656 694.761Z" fill="#6B6B6B" fill-opacity="0.36"/>
<path d="M521.885 810.771C500.866 817.571 478.314 806.045 471.514 785.026C464.714 764.007 476.241 741.456 497.26 734.656C518.279 727.856 540.83 739.382 547.63 760.401C554.43 781.42 542.903 803.972 521.885 810.771Z" fill="#545454" fill-opacity="0.34"/>
<path d="M363.091 547.427C333.908 457.222 275.715 384.501 202.172 336.244L202.172 1004.96C349.079 908.586 419.788 722.678 363.091 547.427Z" fill="#767676" fill-opacity="0.7"/>
<path d="M1809.54 1439.68C1805.99 1426.33 1813.92 1412.64 1827.27 1409.09C1840.61 1405.54 1854.3 1413.47 1857.86 1426.82C1861.41 1440.16 1853.47 1453.85 1840.13 1457.41C1826.78 1460.96 1813.09 1453.02 1809.54 1439.68Z" fill="#8C8C8C" fill-opacity="0.36"/>
<path d="M1889.13 1051.94C1878.48 1011.91 1902.29 970.83 1942.32 960.178C1982.35 949.526 2023.43 973.34 2034.09 1013.37C2044.74 1053.4 2020.92 1094.48 1980.89 1105.13C1940.87 1115.78 1899.78 1091.97 1889.13 1051.94Z" fill="#555555" fill-opacity="0.4"/>
<path d="M2086.68 1144.51C2059.99 1151.61 2044.11 1179 2051.21 1205.68C2058.32 1232.37 2085.71 1248.25 2112.39 1241.15C2115.84 1240.23 2119.11 1238.97 2122.17 1237.42L2122.17 1148.25C2111.59 1142.86 2099.05 1141.21 2086.68 1144.51Z" fill="#7D7D7D" fill-opacity="0.36"/>
<path d="M1880.03 1251.24C1874.35 1229.89 1887.05 1207.98 1908.4 1202.3C1929.75 1196.62 1951.66 1209.32 1957.34 1230.67C1963.02 1252.02 1950.32 1273.93 1928.97 1279.61C1907.62 1285.29 1885.71 1272.59 1880.03 1251.24Z" fill="#A8A8A8" fill-opacity="0.36"/>
<path d="M1916.32 1410.21C1909.22 1383.52 1925.09 1356.14 1951.78 1349.03C1978.46 1341.93 2005.85 1357.81 2012.95 1384.49C2020.06 1411.18 2004.18 1438.57 1977.49 1445.67C1950.81 1452.77 1923.42 1436.9 1916.32 1410.21Z" fill="#393939" fill-opacity="0.36"/>
</svg>